<?xml version="1.0" encoding="utf-8"?>
<!-- Generator: Adobe Illustrator 26.0.1, SVG Export Plug-In . SVG Version: 6.00 Build 0)  -->
<svg version="1.1" id="Layer_1" xmlns="http://www.w3.org/2000/svg" xmlns:xlink="http://www.w3.org/1999/xlink" x="0px" y="0px"
	 viewBox="0 0 612 285.64" style="enable-background:new 0 0 612 285.64;" xml:space="preserve">
<style type="text/css">
	.st0{fill:#43BA86;}
	.st1{fill:#FFFFFF;}
	.st2{fill:none;stroke:#FFFFFF;stroke-width:3;stroke-miterlimit:10;}
</style>
<rect x="67.14" y="60.97" class="st0" width="173.87" height="173.87"/>
<g>
	<rect x="87.07" y="71.88" class="st1" width="4.09" height="155.23"/>
	
		<rect x="151.03" y="135.08" transform="matrix(-1.836970e-16 1 -1 -1.836970e-16 365.7661 59.6183)" class="st1" width="4.09" height="155.23"/>
	<rect x="111.33" y="159.59" class="st2" width="14.55" height="32.43"/>
	<rect x="136.1" y="141.71" class="st2" width="14.55" height="50.3"/>
	<rect x="160.86" y="122.56" class="st2" width="14.55" height="69.45"/>
	<rect x="185.88" y="103.16" class="st2" width="14.55" height="88.85"/>
	<rect x="210.39" y="89.63" class="st2" width="14.55" height="102.38"/>
</g>
<g>
	<path class="st0" d="M300.08,70.7v9h-26.96v16.86h21.24v8.7h-21.24v17.2h26.96v9.04h-38.35V70.7H300.08z"/>
	<path class="st0" d="M334.73,100.22L315.34,70.7h11.27c0.79,0,1.35,0.11,1.7,0.32c0.35,0.21,0.67,0.55,0.95,1.03l13.83,22.33
		c0.14-0.36,0.29-0.72,0.46-1.07c0.17-0.35,0.36-0.71,0.59-1.07l12.66-19.97c0.62-1.04,1.42-1.56,2.4-1.56h10.85l-19.6,29.06
		l20.14,31.75h-11.31c-0.76,0-1.37-0.2-1.83-0.59c-0.46-0.39-0.85-0.84-1.16-1.35l-14.09-23.3c-0.11,0.34-0.24,0.65-0.38,0.95
		c-0.14,0.29-0.28,0.57-0.42,0.82l-13.5,21.53c-0.31,0.48-0.69,0.92-1.13,1.32c-0.45,0.41-1.01,0.61-1.68,0.61h-10.6L334.73,100.22z
		"/>
	<path class="st0" d="M428.04,117.17c0.62,0,1.15,0.24,1.6,0.71l4.46,4.84c-2.47,3.06-5.5,5.4-9.1,7.02
		c-3.6,1.63-7.93,2.44-12.97,2.44c-4.51,0-8.57-0.77-12.17-2.31c-3.6-1.54-6.68-3.69-9.23-6.43c-2.55-2.75-4.51-6.03-5.87-9.84
		c-1.36-3.81-2.04-7.98-2.04-12.49c0-4.57,0.76-8.75,2.27-12.55s3.64-7.07,6.39-9.82c2.75-2.75,6.04-4.88,9.86-6.41
		c3.83-1.53,8.05-2.29,12.68-2.29c4.51,0,8.46,0.72,11.84,2.17c3.38,1.44,6.27,3.36,8.68,5.74l-3.78,5.26
		c-0.22,0.34-0.51,0.63-0.86,0.88c-0.35,0.25-0.83,0.38-1.45,0.38c-0.64,0-1.3-0.25-1.98-0.76c-0.67-0.5-1.53-1.05-2.57-1.64
		c-1.04-0.59-2.35-1.14-3.93-1.64c-1.58-0.5-3.6-0.76-6.04-0.76c-2.86,0-5.49,0.5-7.88,1.49c-2.4,1-4.46,2.42-6.18,4.27
		c-1.72,1.85-3.07,4.1-4.04,6.75c-0.97,2.65-1.45,5.63-1.45,8.94c0,3.42,0.48,6.46,1.45,9.13c0.97,2.66,2.28,4.91,3.93,6.73
		c1.65,1.82,3.6,3.22,5.84,4.18c2.24,0.97,4.65,1.45,7.23,1.45c1.54,0,2.94-0.08,4.18-0.25c1.25-0.17,2.4-0.43,3.45-0.8
		c1.05-0.36,2.05-0.83,2.99-1.41c0.94-0.57,1.87-1.28,2.8-2.12c0.28-0.25,0.57-0.46,0.88-0.61
		C427.34,117.24,427.67,117.17,428.04,117.17z"/>
	<path class="st0" d="M491.24,70.7v9h-26.96v16.86h21.24v8.7h-21.24v17.2h26.96v9.04h-38.35V70.7H491.24z"/>
	<path class="st0" d="M522.61,122.17h24.35v9.34H511.3V70.7h11.31V122.17z"/>
</g>
<g>
	<path class="st0" d="M274.86,204.18v25.41h-13.43v-72.18h23.51c4.82,0,9,0.57,12.53,1.7c3.53,1.13,6.44,2.71,8.73,4.74
		c2.3,2.03,3.99,4.46,5.09,7.29c1.1,2.83,1.65,5.92,1.65,9.28c0,3.49-0.58,6.7-1.75,9.61c-1.17,2.91-2.91,5.42-5.24,7.51
		c-2.33,2.1-5.24,3.73-8.74,4.89c-3.49,1.17-7.59,1.75-12.28,1.75H274.86z M274.86,193.7h10.08c2.46,0,4.61-0.31,6.44-0.92
		c1.83-0.62,3.34-1.5,4.54-2.65c1.2-1.15,2.1-2.55,2.7-4.19c0.6-1.65,0.9-3.49,0.9-5.52c0-1.93-0.3-3.68-0.9-5.24
		c-0.6-1.56-1.5-2.9-2.7-3.99c-1.2-1.1-2.71-1.94-4.54-2.52c-1.83-0.58-3.98-0.87-6.44-0.87h-10.08V193.7z"/>
	<path class="st0" d="M349.43,201.38v28.2H336v-72.18h22.01c4.93,0,9.14,0.51,12.65,1.52c3.51,1.02,6.39,2.44,8.63,4.27
		c2.25,1.83,3.89,4.02,4.94,6.56c1.05,2.55,1.57,5.35,1.57,8.41c0,2.43-0.36,4.73-1.07,6.89c-0.72,2.16-1.75,4.13-3.1,5.89
		c-1.35,1.76-3.01,3.31-4.99,4.64c-1.98,1.33-4.24,2.4-6.76,3.19c1.7,0.97,3.16,2.35,4.39,4.14l18.07,26.66h-12.08
		c-1.17,0-2.16-0.23-2.97-0.7c-0.82-0.47-1.51-1.13-2.07-2l-15.17-23.11c-0.57-0.86-1.19-1.48-1.87-1.85
		c-0.68-0.37-1.69-0.55-3.02-0.55H349.43z M349.43,191.75h8.39c2.53,0,4.73-0.32,6.61-0.95c1.88-0.63,3.43-1.51,4.64-2.62
		c1.21-1.11,2.12-2.44,2.72-3.97c0.6-1.53,0.9-3.21,0.9-5.04c0-3.66-1.21-6.47-3.62-8.44c-2.41-1.96-6.1-2.95-11.06-2.95h-8.59
		V191.75z"/>
	<path class="st0" d="M479.96,193.5c0,5.29-0.88,10.19-2.65,14.7c-1.76,4.51-4.24,8.41-7.44,11.71c-3.19,3.29-7.04,5.87-11.53,7.71
		s-9.47,2.77-14.92,2.77c-5.46,0-10.44-0.92-14.95-2.77c-4.51-1.85-8.37-4.42-11.58-7.71c-3.21-3.29-5.7-7.2-7.46-11.71
		c-1.76-4.51-2.65-9.41-2.65-14.7c0-5.29,0.88-10.19,2.65-14.7c1.76-4.51,4.25-8.41,7.46-11.71c3.21-3.29,7.07-5.87,11.58-7.71
		c4.51-1.85,9.49-2.77,14.95-2.77c5.46,0,10.43,0.93,14.92,2.8c4.49,1.86,8.34,4.43,11.53,7.71c3.2,3.28,5.67,7.17,7.44,11.68
		C479.08,183.31,479.96,188.21,479.96,193.5z M466.18,193.5c0-3.96-0.52-7.51-1.57-10.66s-2.55-5.82-4.52-8.01
		c-1.96-2.2-4.35-3.88-7.16-5.04c-2.81-1.16-5.98-1.75-9.51-1.75s-6.71,0.58-9.53,1.75c-2.83,1.17-5.23,2.85-7.21,5.04
		s-3.5,4.87-4.57,8.01c-1.07,3.14-1.6,6.7-1.6,10.66c0,3.96,0.53,7.51,1.6,10.66c1.06,3.14,2.59,5.81,4.57,7.99
		c1.98,2.18,4.38,3.85,7.21,5.02c2.83,1.17,6.01,1.75,9.53,1.75s6.7-0.58,9.51-1.75c2.81-1.16,5.2-2.84,7.16-5.02
		c1.96-2.18,3.47-4.84,4.52-7.99S466.18,197.46,466.18,193.5z"/>
	<path class="st0" d="M541.41,170.54c-0.37,0.73-0.79,1.25-1.27,1.55c-0.48,0.3-1.06,0.45-1.72,0.45c-0.67,0-1.42-0.26-2.25-0.77
		c-0.83-0.52-1.81-1.09-2.95-1.72c-1.13-0.63-2.45-1.21-3.97-1.72c-1.51-0.52-3.3-0.77-5.37-0.77c-1.86,0-3.49,0.22-4.87,0.67
		s-2.55,1.07-3.49,1.87c-0.95,0.8-1.66,1.76-2.12,2.87c-0.47,1.12-0.7,2.34-0.7,3.67c0,1.7,0.47,3.11,1.42,4.24
		c0.95,1.13,2.2,2.1,3.77,2.9s3.34,1.51,5.34,2.15c2,0.63,4.04,1.31,6.12,2.02c2.08,0.72,4.12,1.55,6.11,2.5
		c2,0.95,3.78,2.15,5.34,3.59c1.56,1.45,2.82,3.22,3.77,5.32c0.95,2.1,1.42,4.64,1.42,7.64c0,3.26-0.56,6.31-1.67,9.16
		c-1.12,2.85-2.75,5.32-4.89,7.44s-4.77,3.78-7.86,4.99s-6.64,1.82-10.63,1.82c-2.3,0-4.56-0.22-6.79-0.67
		c-2.23-0.45-4.37-1.09-6.41-1.92c-2.05-0.83-3.96-1.83-5.74-3c-1.78-1.16-3.37-2.46-4.77-3.89l3.89-6.44
		c0.37-0.47,0.81-0.86,1.32-1.17c0.52-0.32,1.09-0.47,1.72-0.47c0.83,0,1.73,0.34,2.7,1.02c0.96,0.68,2.1,1.44,3.42,2.27
		c1.31,0.83,2.86,1.59,4.64,2.27c1.78,0.68,3.92,1.02,6.41,1.02c3.83,0,6.79-0.91,8.88-2.72c2.1-1.81,3.14-4.42,3.14-7.81
		c0-1.9-0.47-3.44-1.42-4.64c-0.95-1.2-2.21-2.2-3.77-3.02c-1.56-0.82-3.34-1.51-5.34-2.07c-2-0.57-4.03-1.18-6.09-1.85
		c-2.06-0.67-4.09-1.46-6.09-2.4c-2-0.93-3.78-2.15-5.34-3.64c-1.57-1.5-2.82-3.37-3.77-5.62c-0.95-2.25-1.42-5.02-1.42-8.31
		c0-2.63,0.52-5.19,1.57-7.69c1.05-2.5,2.58-4.71,4.59-6.64c2.01-1.93,4.48-3.48,7.41-4.64c2.93-1.16,6.27-1.75,10.03-1.75
		c4.26,0,8.19,0.67,11.78,2c3.59,1.33,6.66,3.19,9.18,5.59L541.41,170.54z"/>
</g>
</svg>
